<?xml version="1.0" standalone="no"?>
<!DOCTYPE svg PUBLIC "-//W3C//DTD SVG 20010904//EN"
 "http://www.w3.org/TR/2001/REC-SVG-20010904/DTD/svg10.dtd">
<svg version="1.0" xmlns="http://www.w3.org/2000/svg"
 width="1920.000000pt" height="1341.000000pt" viewBox="0 0 1920.000000 1341.000000"
 preserveAspectRatio="xMidYMid meet">
<metadata>
Created by potrace 1.15, written by Peter Selinger 2001-2017
</metadata>
<g transform="translate(0.000000,1341.000000) scale(0.100000,-0.100000)"
fill="#000000" stroke="none">
<path d="M0 7016 l0 -6395 38 -3 37 -3 3 -56 c4 -75 22 -92 108 -97 69 -5 94
6 94 39 0 17 9 19 94 19 102 0 106 2 106 61 0 22 6 32 26 39 23 9 25 14 22 57
-3 47 -4 48 -37 48 -19 0 -36 5 -37 10 -2 6 20 26 48 45 104 70 108 75 108
141 l0 59 46 0 c37 0 47 -4 51 -20 3 -11 8 -20 12 -20 3 0 30 18 60 41 29 22
58 38 65 36 6 -3 90 -62 186 -132 96 -70 181 -130 189 -134 19 -11 4 -33 -22
-30 -49 3 -48 14 -45 -248 l3 -248 49 -3 c96 -6 96 -7 96 113 l0 105 -30 0
c-20 0 -30 5 -30 15 0 14 13 25 219 174 l113 82 58 -40 c66 -46 80 -50 80 -20
0 18 5 20 43 17 l42 -3 3 -59 c2 -42 8 -64 20 -72 12 -9 57 -13 148 -14 111 0
133 2 138 16 11 28 6 65 -9 69 -8 3 -22 7 -30 10 -23 7 -9 27 45 62 46 31 49
35 52 80 3 47 4 48 37 51 24 2 37 -2 43 -12 8 -14 15 -12 54 15 25 17 51 29
57 26 29 -11 282 -199 285 -212 2 -8 -7 -15 -25 -17 -23 -2 -28 -8 -29 -33 -1
-38 12 -55 42 -55 17 0 23 -6 26 -27 3 -27 5 -28 58 -28 l55 0 5 65 5 65 40
-3 c21 -2 54 -1 72 3 33 6 33 6 33 65 0 53 -2 60 -19 60 -11 0 -23 5 -26 10
-10 16 23 60 45 60 10 0 23 8 28 17 7 11 22 16 49 15 32 -1 47 4 72 28 40 39
72 38 112 -1 27 -26 37 -30 66 -26 26 5 38 1 51 -14 9 -10 24 -19 34 -19 34 0
59 -62 27 -66 -5 -1 -13 -2 -19 -3 -11 -1 -14 -178 -4 -205 8 -22 205 -24 223
-2 8 9 11 48 9 112 l-3 99 -27 3 c-52 6 -41 18 161 162 l143 102 60 -41 c67
-46 78 -49 78 -21 0 17 7 20 45 20 l45 0 0 -60 c0 -76 20 -93 107 -88 l58 3 3
104 c3 108 -4 131 -39 131 -11 0 -19 4 -19 9 0 5 66 57 146 115 l146 107 52
-36 c60 -41 62 -41 69 -15 4 15 14 20 41 20 l36 0 0 -55 c0 -54 1 -56 45 -87
50 -35 57 -55 23 -60 -23 -3 -23 -5 -26 -188 -2 -138 1 -190 10 -202 7 -9 66
-55 132 -102 l118 -86 73 0 c70 0 75 -2 94 -29 27 -37 27 -57 0 -64 -18 -5
-20 -12 -17 -64 l3 -58 63 -3 62 -3 0 436 c0 428 0 435 -20 435 -29 0 -24 25
8 39 15 7 69 37 119 68 l93 55 120 -69 c114 -65 144 -93 100 -93 -19 0 -20 -7
-20 -140 0 -164 -10 -153 135 -148 l90 3 3 212 c1 140 -1 213 -8 213 -19 0
-10 35 13 46 12 6 62 34 112 63 l90 53 43 -24 c40 -21 44 -22 53 -5 6 9 18 17
28 17 21 0 31 -19 31 -56 0 -18 9 -29 35 -41 32 -15 50 -53 25 -53 -6 0 -10
-107 -10 -300 l0 -300 200 0 200 0 12 -25 c9 -19 8 -31 -1 -48 -7 -13 -11 -51
-9 -92 l3 -70 53 -28 c30 -15 58 -25 63 -21 5 3 9 244 9 575 l0 569 -26 10
c-22 9 -25 15 -22 47 3 35 6 38 36 41 24 2 32 8 32 23 0 18 8 19 154 19 145 0
155 -1 161 -19 8 -26 34 -34 103 -29 l57 3 3 -38 c3 -32 0 -38 -22 -47 l-26
-10 0 -250 c0 -169 3 -250 11 -250 5 0 51 34 102 75 50 41 93 75 97 75 3 0 47
-34 98 -75 51 -41 95 -75 98 -75 2 0 4 83 4 184 0 175 -1 184 -20 189 -37 10
-16 87 24 87 15 0 25 7 29 19 3 14 15 21 43 23 l39 3 3 52 3 53 35 0 c20 0 34
-5 35 -12 0 -7 1 -31 2 -53 2 -38 4 -40 36 -43 28 -3 47 7 131 72 54 42 102
76 107 76 4 0 53 -34 107 -75 77 -59 107 -75 133 -75 35 0 34 -1 37 70 1 33 3
35 38 38 l37 3 3 -53 c3 -46 6 -53 26 -56 12 -2 22 0 22 5 0 4 1 57 2 118 1
108 0 110 -23 115 -21 5 -24 13 -27 54 -3 50 11 81 35 72 19 -8 43 4 43 20 0
11 29 14 155 14 126 0 155 -3 155 -14 0 -15 21 -26 51 -26 17 0 19 -8 19 -60
0 -53 -2 -60 -20 -60 -20 0 -20 -5 -18 -418 l3 -417 27 -3 c19 -2 30 3 37 17
9 16 23 21 74 23 60 3 62 4 67 33 3 17 11 30 18 29 6 -1 32 -2 57 -3 l45 -1 0
-38 c0 -21 5 -43 12 -50 17 -17 55 -15 62 4 4 9 6 211 6 448 0 237 0 436 0
442 0 7 11 15 25 18 23 6 24 11 27 83 3 73 4 77 28 83 23 5 25 11 28 62 l3 57
57 3 57 3 3 1788 2 1787 -45 43 c-40 39 -45 49 -45 87 0 38 5 48 45 87 l45 43
0 969 0 968 -47 14 c-90 25 -163 124 -163 219 0 95 73 194 163 219 l47 14 0
1043 0 1043 -29 17 c-38 22 -61 64 -61 110 0 31 7 44 45 81 l45 43 0 475 0
475 -45 43 c-40 39 -45 49 -45 87 0 38 5 48 45 87 l45 43 0 750 0 750 -4780 0
-4780 0 0 -6394z"/>
<path d="M9610 12657 l0 -752 33 -18 c88 -48 88 -166 0 -214 l-33 -18 0 -480
0 -480 33 -18 c88 -48 88 -166 0 -214 l-33 -18 0 -1042 0 -1042 43 -13 c84
-25 157 -126 157 -218 0 -92 -73 -193 -157 -218 l-43 -13 0 -972 0 -972 33
-18 c88 -48 88 -166 0 -214 l-33 -18 2 -1790 3 -1790 53 -3 52 -3 0 -55 c0
-53 1 -55 30 -60 l30 -6 0 -79 c0 -73 1 -78 23 -81 l22 -3 3 -659 c2 -604 3
-658 18 -652 9 4 45 27 80 53 l64 47 0 338 c0 328 -1 338 -19 338 -38 0 -31
20 19 56 49 35 50 36 50 90 l0 54 36 0 c27 0 37 -5 41 -20 7 -25 6 -26 58 10
24 17 51 30 60 30 23 0 296 -200 289 -211 -3 -5 -14 -9 -25 -9 -10 0 -19 -6
-19 -12 -4 -105 0 -312 7 -317 4 -4 28 -13 53 -21 25 -7 70 -21 100 -31 30 -9
141 -45 246 -79 187 -59 193 -62 218 -100 31 -47 31 -50 8 -50 -32 0 -37 -17
-32 -97 l5 -78 34 -3 c19 -2 44 -1 58 3 l23 5 -2 178 -3 177 -30 5 c-16 4 -29
11 -28 16 1 6 63 113 138 238 154 257 165 280 142 303 -14 14 -14 18 0 39 20
31 36 30 54 -3 11 -20 11 -27 2 -30 -18 -6 -16 -48 3 -85 9 -18 74 -128 145
-246 71 -118 129 -218 129 -222 0 -5 -15 -10 -32 -12 l-33 -3 -3 -72 c-3 -81
-15 -71 118 -105 165 -43 165 -43 158 24 -3 30 -6 33 -40 36 -21 2 -38 6 -38
10 1 4 37 33 80 64 l80 58 0 57 c0 32 4 63 8 70 4 7 26 11 52 10 40 -2 45 -5
50 -30 l5 -27 60 45 c33 24 66 45 74 45 15 0 390 -265 403 -284 5 -7 -3 -12
-20 -14 -46 -6 -52 -18 -52 -103 l0 -79 98 0 c53 0 102 -4 108 -8 13 -8 63
-86 66 -104 2 -6 -10 -14 -27 -18 l-30 -5 0 -100 0 -100 68 -3 67 -3 -2 233
-3 233 -29 0 c-16 0 -30 5 -32 10 -1 6 25 30 59 55 l62 45 5 60 5 60 35 0 c29
0 36 -4 38 -22 5 -31 16 -29 72 12 26 19 56 35 67 35 10 0 48 -21 83 -47 36
-26 108 -78 160 -116 95 -68 117 -95 71 -89 -13 2 -28 -2 -32 -10 -11 -17 -11
-179 0 -196 6 -10 36 -14 109 -14 56 0 106 3 112 7 6 3 10 46 10 101 0 92 -1
95 -25 104 -29 11 -30 18 -9 48 9 13 26 22 40 22 13 0 27 7 30 15 4 10 20 15
48 15 34 0 47 6 68 30 35 40 71 40 108 0 22 -24 36 -30 68 -30 26 0 42 -5 46
-15 3 -8 17 -15 30 -15 25 0 56 -32 56 -57 0 -7 -9 -13 -20 -13 -19 0 -20 -7
-20 -104 l0 -105 38 -3 37 -3 5 -110 5 -110 48 -3 47 -3 0 160 c0 156 0 160
-22 163 -38 5 -29 22 30 53 l57 30 3 63 3 63 32 -3 c29 -3 32 -6 35 -40 2 -21
8 -38 14 -38 6 0 61 25 122 56 l111 57 218 -107 c133 -66 217 -113 217 -122 0
-7 -9 -14 -19 -14 -25 0 -31 -19 -31 -98 0 -77 5 -87 51 -110 27 -13 35 -24
37 -49 l3 -33 70 0 c38 0 70 3 70 8 1 4 3 17 4 28 3 33 12 41 66 60 61 22 71
38 67 107 -3 48 -5 52 -30 55 -16 2 -28 7 -28 11 0 7 246 191 287 215 8 4 32
-6 59 -24 41 -29 46 -30 58 -15 8 11 22 16 41 13 28 -3 30 -6 33 -50 3 -45 6
-49 62 -89 61 -43 68 -59 24 -59 -19 0 -24 -5 -24 -25 0 -24 2 -25 63 -25 85
1 101 14 107 93 5 66 7 67 73 58 4 -1 7 -12 7 -26 0 -14 4 -25 8 -25 5 0 33
18 62 40 29 22 61 40 69 40 9 -1 68 -38 131 -84 l114 -84 56 20 c72 27 80 34
80 72 0 23 9 41 29 60 19 19 31 41 33 63 4 45 22 43 26 -3 2 -26 12 -45 33
-63 20 -18 29 -35 29 -57 0 -39 7 -44 103 -79 44 -16 85 -35 93 -42 10 -11 14
-42 14 -114 0 -99 0 -99 25 -99 22 0 25 4 25 36 0 27 5 37 20 41 15 4 20 15
22 57 l3 51 65 0 c65 0 65 0 68 -30 5 -38 16 -45 79 -45 63 0 88 18 71 54 -8
19 -7 29 6 47 9 13 16 31 16 41 0 10 7 18 18 18 9 0 27 3 38 6 16 4 33 -4 62
-30 22 -20 45 -36 52 -36 6 0 30 16 53 35 22 19 44 35 48 35 4 0 28 -18 55
-40 l48 -39 31 24 c75 62 69 62 125 15 l50 -42 42 36 c35 31 47 35 82 32 37
-3 41 -7 47 -35 4 -18 15 -41 24 -51 14 -15 15 -23 6 -34 -8 -9 -11 -48 -9
-112 l3 -99 70 0 70 0 0 85 c0 61 -4 85 -12 86 -30 3 -33 4 -33 12 0 4 23 22
50 41 48 32 56 45 62 101 4 31 45 41 65 15 11 -17 15 -16 48 9 20 15 42 26 49
23 18 -7 255 -177 262 -188 3 -5 0 -10 -5 -10 -6 -1 -15 -3 -21 -4 -5 -1 -15
-3 -20 -4 -7 -1 -10 -40 -8 -108 l3 -108 38 -3 37 -3 0 50 c0 27 -4 53 -10 56
-5 3 -10 10 -10 15 0 10 136 110 150 110 6 0 35 -18 64 -40 29 -22 56 -40 59
-40 4 0 7 2950 7 6555 l0 6555 -4795 0 -4795 0 0 -753z"/>
<path d="M9500 8288 c-72 -37 -111 -114 -96 -192 15 -78 97 -146 176 -146 20
0 56 10 80 23 132 66 132 248 0 315 -24 12 -60 22 -80 22 -20 0 -56 -10 -80
-22z"/>
</g>
</svg>
