<!DOCTYPE svg PUBLIC "-//W3C//DTD SVG 20010904//EN" "http://www.w3.org/TR/2001/REC-SVG-20010904/DTD/svg10.dtd">
<svg version="1.0" xmlns="http://www.w3.org/2000/svg" width="172px" height="172px" viewBox="0 0 1720 1720" preserveAspectRatio="xMidYMid meet">
<g id="layer101" fill="#ffffff" stroke="none">
 <path d="M675 1706 c-298 -68 -536 -283 -636 -574 -33 -96 -34 -100 -34 -272 0 -172 1 -177 33 -270 47 -136 111 -239 212 -340 101 -101 204 -165 340 -212 93 -32 98 -33 270 -33 172 0 177 1 270 33 136 47 239 111 340 212 101 101 165 204 212 340 32 93 33 98 33 270 0 172 -1 177 -33 270 -47 136 -111 239 -212 340 -101 101 -205 166 -340 211 -87 30 -107 33 -245 35 -101 3 -169 -1 -210 -10z m355 -72 c44 -9 116 -36 175 -64 172 -84 281 -193 365 -365 58 -121 81 -218 81 -345 0 -127 -23 -224 -81 -345 -84 -172 -193 -281 -365 -365 -121 -58 -218 -81 -345 -81 -127 0 -224 23 -345 81 -111 54 -193 117 -267 206 -63 75 -142 237 -163 334 -21 96 -21 244 0 340 9 41 38 120 65 175 84 172 193 281 365 365 172 84 323 102 515 64z"/>
 <path d="M688 1032 c-157 -158 -187 -203 -188 -280 0 -118 86 -202 209 -202 50 0 66 5 108 33 l49 33 38 -30 c31 -26 48 -31 105 -34 80 -5 135 18 174 70 45 61 56 119 36 193 -15 55 -320 365 -358 365 -20 0 -61 -35 -173 -148z"/>
 </g>

</svg>