<!DOCTYPE svg PUBLIC "-//W3C//DTD SVG 20010904//EN" "http://www.w3.org/TR/2001/REC-SVG-20010904/DTD/svg10.dtd">
<svg version="1.0" xmlns="http://www.w3.org/2000/svg" width="172px" height="172px" viewBox="0 0 1720 1720" preserveAspectRatio="xMidYMid meet">
<g id="layer101" fill="#ffffff" stroke="none">
 <path d="M675 1706 c-298 -68 -536 -283 -636 -574 -33 -96 -34 -100 -34 -272 0 -172 1 -177 33 -270 47 -136 111 -239 212 -340 101 -101 204 -165 340 -212 93 -32 98 -33 270 -33 172 0 177 1 270 33 136 47 239 111 340 212 101 101 165 204 212 340 32 93 33 98 33 270 0 172 -1 177 -33 270 -47 136 -111 239 -212 340 -101 101 -205 166 -340 211 -87 30 -107 33 -245 35 -101 3 -169 -1 -210 -10z m355 -72 c44 -9 116 -36 175 -64 172 -84 281 -193 365 -365 58 -121 81 -218 81 -345 0 -127 -23 -224 -81 -345 -84 -172 -193 -281 -365 -365 -121 -58 -218 -81 -345 -81 -127 0 -224 23 -345 81 -111 54 -193 117 -267 206 -63 75 -142 237 -163 334 -21 96 -21 244 0 340 9 41 38 120 65 175 84 172 193 281 365 365 172 84 323 102 515 64z"/>
 <path d="M829 1053 c0 -83 -1 -87 -16 -65 -10 14 -26 22 -44 22 -25 0 -29 -4 -29 -27 1 -35 89 -133 120 -133 31 0 119 98 120 133 0 23 -4 27 -29 27 -18 0 -34 -8 -44 -22 -15 -22 -16 -18 -16 65 l-1 87 -30 0 -30 0 -1 -87z"/>
 <path d="M606 1011 c-46 -31 -66 -69 -66 -131 0 -61 20 -100 65 -130 15 -10 44 -40 64 -66 50 -66 106 -94 191 -94 85 0 141 28 191 94 20 26 49 56 64 66 45 30 65 69 65 130 0 90 -55 150 -137 150 -41 0 -43 -2 -43 -29 0 -25 5 -30 33 -36 48 -11 77 -42 77 -85 0 -40 -32 -80 -64 -80 -10 0 -23 -14 -31 -33 -16 -39 -61 -86 -93 -98 -13 -5 -41 -9 -62 -9 -21 0 -49 4 -62 9 -32 12 -77 59 -93 98 -9 21 -21 33 -33 33 -30 0 -62 42 -62 81 0 42 29 74 78 84 27 6 32 11 32 36 0 27 -2 29 -42 29 -25 0 -55 -8 -72 -19z"/>
 </g>

</svg>