<?xml version="1.0" standalone="no"?>
<!DOCTYPE svg PUBLIC "-//W3C//DTD SVG 20010904//EN"
 "http://www.w3.org/TR/2001/REC-SVG-20010904/DTD/svg10.dtd">
<svg version="1.0" xmlns="http://www.w3.org/2000/svg"
 width="55.000000pt" height="54.000000pt" viewBox="0 0 55.000000 54.000000"
 preserveAspectRatio="xMidYMid meet">
<metadata>
Created by potrace 1.15, written by Peter Selinger 2001-2017
</metadata>
<g transform="translate(0.000000,54.000000) scale(0.100000,-0.100000)"
fill="#000000" stroke="none">
<path d="M0 270 l0 -270 275 0 275 0 0 270 0 270 -275 0 -275 0 0 -270z m200
90 l0 -60 75 0 75 0 0 60 c0 57 1 60 25 60 l25 0 0 -140 0 -140 -25 0 c-24 0
-25 3 -25 55 l0 55 -75 0 -75 0 0 -55 c0 -52 -1 -55 -25 -55 l-25 0 0 140 0
140 25 0 c24 0 25 -3 25 -60z"/>
</g>
</svg>
